<svg width="40" height="40" viewBox="0 0 40 40" fill="none" xmlns="http://www.w3.org/2000/svg">
<path d="M20 8.15L23.45 15.125L24.025 16.375L25.275 16.5625L32.975 17.675L27.5 23.05L26.5625 23.9625L26.7875 25.2125L28.1 32.875L21.2125 29.2625L20 28.75L18.8375 29.3625L11.95 32.925L13.2 25.2625L13.425 24.0125L12.5 23.05L6.97498 17.6125L14.675 16.5L15.925 16.3125L16.5 15.0625L20 8.15ZM20 2.5L14.3125 14.025L1.59998 15.8625L10.8 24.8375L8.62498 37.5L20 31.525L31.375 37.5L29.2 24.8375L38.4 15.875L25.6875 14.025L20 2.5Z" fill="#007680"/>
</svg>
