<svg width="40" height="40" viewBox="0 0 40 40" fill="none" xmlns="http://www.w3.org/2000/svg">
<path d="M32.5 17.5H30V20H32.5C33.4942 20.0011 34.4474 20.3965 35.1504 21.0996C35.8535 21.8026 36.2489 22.7558 36.25 23.75V28.75H38.75V23.75C38.7481 22.093 38.089 20.5044 36.9173 19.3327C35.7456 18.161 34.157 17.5019 32.5 17.5Z" fill="#007680"/>
<path d="M30 5C30.7417 5 31.4667 5.21993 32.0834 5.63199C32.7001 6.04404 33.1807 6.62971 33.4646 7.31494C33.7484 8.00016 33.8226 8.75416 33.6779 9.48159C33.5333 10.209 33.1761 10.8772 32.6517 11.4017C32.1272 11.9261 31.459 12.2833 30.7316 12.4279C30.0042 12.5726 29.2502 12.4984 28.5649 12.2145C27.8797 11.9307 27.294 11.4501 26.882 10.8334C26.4699 10.2167 26.25 9.49168 26.25 8.75C26.25 7.75544 26.6451 6.80161 27.3484 6.09835C28.0516 5.39509 29.0054 5 30 5ZM30 2.5C28.7639 2.5 27.5555 2.86656 26.5277 3.55331C25.4999 4.24007 24.6988 5.21619 24.2258 6.35823C23.7527 7.50027 23.6289 8.75693 23.8701 9.96931C24.1113 11.1817 24.7065 12.2953 25.5806 13.1694C26.4547 14.0435 27.5683 14.6388 28.7807 14.8799C29.9931 15.1211 31.2497 14.9973 32.3918 14.5242C33.5338 14.0512 34.5099 13.2501 35.1967 12.2223C35.8834 11.1945 36.25 9.98613 36.25 8.75C36.25 7.0924 35.5915 5.50269 34.4194 4.33058C33.2473 3.15848 31.6576 2.5 30 2.5Z" fill="#007680"/>
<path d="M28.75 37.5H26.25V35C26.2489 34.0058 25.8535 33.0526 25.1504 32.3496C24.4474 31.6465 23.4942 31.2511 22.5 31.25H17.5C16.5058 31.2511 15.5526 31.6465 14.8496 32.3496C14.1465 33.0526 13.7511 34.0058 13.75 35V37.5H11.25V35C11.252 33.343 11.9111 31.7544 13.0827 30.5827C14.2544 29.4111 15.843 28.752 17.5 28.75H22.5C24.157 28.752 25.7456 29.4111 26.9173 30.5827C28.0889 31.7544 28.748 33.343 28.75 35V37.5Z" fill="#007680"/>
<path d="M20 16.25C20.7417 16.25 21.4667 16.4699 22.0834 16.882C22.7001 17.294 23.1807 17.8797 23.4646 18.5649C23.7484 19.2502 23.8226 20.0042 23.6779 20.7316C23.5333 21.459 23.1761 22.1272 22.6517 22.6517C22.1272 23.1761 21.459 23.5333 20.7316 23.6779C20.0042 23.8226 19.2502 23.7484 18.5649 23.4645C17.8797 23.1807 17.294 22.7001 16.882 22.0834C16.4699 21.4667 16.25 20.7417 16.25 20C16.25 19.0054 16.6451 18.0516 17.3484 17.3483C18.0516 16.6451 19.0054 16.25 20 16.25ZM20 13.75C18.7639 13.75 17.5555 14.1166 16.5277 14.8033C15.4999 15.4901 14.6988 16.4662 14.2258 17.6082C13.7527 18.7503 13.6289 20.0069 13.8701 21.2193C14.1113 22.4317 14.7065 23.5453 15.5806 24.4194C16.4547 25.2935 17.5683 25.8888 18.7807 26.1299C19.9931 26.3711 21.2497 26.2473 22.3918 25.7742C23.5338 25.3012 24.5099 24.5001 25.1967 23.4723C25.8834 22.4445 26.25 21.2361 26.25 20C26.25 18.3424 25.5915 16.7527 24.4194 15.5806C23.2473 14.4085 21.6576 13.75 20 13.75Z" fill="#007680"/>
<path d="M10 17.5H7.5C5.843 17.502 4.25442 18.1611 3.08274 19.3327C1.91106 20.5044 1.25195 22.093 1.25 23.75V28.75H3.75V23.75C3.75109 22.7558 4.14653 21.8026 4.84956 21.0996C5.55258 20.3965 6.50577 20.0011 7.5 20H10V17.5Z" fill="#007680"/>
<path d="M10 5C10.7417 5 11.4667 5.21993 12.0834 5.63199C12.7001 6.04404 13.1807 6.62971 13.4646 7.31494C13.7484 8.00016 13.8226 8.75416 13.6779 9.48159C13.5333 10.209 13.1761 10.8772 12.6517 11.4017C12.1272 11.9261 11.459 12.2833 10.7316 12.4279C10.0042 12.5726 9.25016 12.4984 8.56494 12.2145C7.87972 11.9307 7.29405 11.4501 6.88199 10.8334C6.46994 10.2167 6.25 9.49168 6.25 8.75C6.25 7.75544 6.64509 6.80161 7.34835 6.09835C8.05161 5.39509 9.00544 5 10 5ZM10 2.5C8.76387 2.5 7.5555 2.86656 6.52769 3.55331C5.49988 4.24007 4.6988 5.21619 4.22576 6.35823C3.75271 7.50027 3.62894 8.75693 3.87009 9.96931C4.11125 11.1817 4.70651 12.2953 5.58059 13.1694C6.45466 14.0435 7.56831 14.6388 8.78069 14.8799C9.99307 15.1211 11.2497 14.9973 12.3918 14.5242C13.5338 14.0512 14.5099 13.2501 15.1967 12.2223C15.8834 11.1945 16.25 9.98613 16.25 8.75C16.25 7.0924 15.5915 5.50269 14.4194 4.33058C13.2473 3.15848 11.6576 2.5 10 2.5Z" fill="#007680"/>
</svg>
