<svg width="40" height="40" viewBox="0 0 40 40" fill="none" xmlns="http://www.w3.org/2000/svg">
<path d="M31.25 12.5H31.175C30.8569 9.75928 29.5428 7.23101 27.4824 5.39591C25.422 3.56082 22.7591 2.54687 20 2.54688C17.2409 2.54688 14.578 3.56082 12.5176 5.39591C10.4572 7.23101 9.14306 9.75928 8.825 12.5H8.75C7.0924 12.5 5.50269 13.1585 4.33058 14.3306C3.15848 15.5027 2.5 17.0924 2.5 18.75C2.5 20.4076 3.15848 21.9973 4.33058 23.1694C5.50269 24.3415 7.0924 25 8.75 25H11.25V13.75C11.25 11.4294 12.1719 9.20376 13.8128 7.56282C15.4538 5.92188 17.6794 5 20 5C22.3206 5 24.5462 5.92188 26.1872 7.56282C27.8281 9.20376 28.75 11.4294 28.75 13.75V26.25C28.7492 27.3953 28.3552 28.5055 27.6339 29.3952C26.9127 30.2848 25.9078 30.8999 24.7875 31.1375C24.4538 29.9672 23.7048 28.9588 22.6808 28.3012C21.6568 27.6437 20.4282 27.3822 19.2251 27.5657C18.0221 27.7492 16.9273 28.3651 16.146 29.2981C15.3646 30.231 14.9503 31.4169 14.9807 32.6335C15.0111 33.85 15.4842 35.0137 16.3112 35.9064C17.1382 36.7992 18.2624 37.3596 19.4731 37.4828C20.6838 37.606 21.8978 37.2834 22.8877 36.5755C23.8775 35.8676 24.5752 34.823 24.85 33.6375C26.6237 33.3745 28.2446 32.4848 29.4187 31.1295C30.5928 29.7742 31.2425 28.0431 31.25 26.25V25C32.9076 25 34.4973 24.3415 35.6694 23.1694C36.8415 21.9973 37.5 20.4076 37.5 18.75C37.5 17.0924 36.8415 15.5027 35.6694 14.3306C34.4973 13.1585 32.9076 12.5 31.25 12.5ZM5 18.75C5 17.7554 5.39509 16.8016 6.09835 16.0984C6.80161 15.3951 7.75544 15 8.75 15V22.5C7.75544 22.5 6.80161 22.1049 6.09835 21.4017C5.39509 20.6984 5 19.7446 5 18.75ZM20 35C19.5055 35 19.0222 34.8534 18.6111 34.5787C18.2 34.304 17.8795 33.9135 17.6903 33.4567C17.5011 32.9999 17.4516 32.4972 17.548 32.0123C17.6445 31.5273 17.8826 31.0819 18.2322 30.7322C18.5819 30.3826 19.0273 30.1445 19.5123 30.048C19.9972 29.9516 20.4999 30.0011 20.9567 30.1903C21.4135 30.3795 21.804 30.7 22.0787 31.1111C22.3534 31.5222 22.5 32.0056 22.5 32.5C22.5 33.163 22.2366 33.7989 21.7678 34.2678C21.2989 34.7366 20.663 35 20 35ZM31.25 22.5V15C32.2446 15 33.1984 15.3951 33.9017 16.0984C34.6049 16.8016 35 17.7554 35 18.75C35 19.7446 34.6049 20.6984 33.9017 21.4017C33.1984 22.1049 32.2446 22.5 31.25 22.5Z" fill="#007680"/>
</svg>
