<svg width="40" height="40" viewBox="0 0 40 40" fill="none" xmlns="http://www.w3.org/2000/svg">
<path d="M35 37.5H27.5C26.8372 37.4992 26.2017 37.2356 25.7331 36.7669C25.2644 36.2983 25.0008 35.6628 25 35V27.5C25.0008 26.8372 25.2644 26.2017 25.7331 25.7331C26.2017 25.2644 26.8372 25.0008 27.5 25H35C35.6628 25.0008 36.2983 25.2644 36.7669 25.7331C37.2356 26.2017 37.4992 26.8372 37.5 27.5V35C37.4992 35.6628 37.2356 36.2983 36.7669 36.7669C36.2983 37.2356 35.6628 37.4992 35 37.5ZM27.5 27.5H27.4985L27.5 35H35V27.5H27.5Z" fill="#007680"/>
<path d="M22.5 32.5H15C14.0058 32.4989 13.0526 32.1035 12.3496 31.4004C11.6465 30.6974 11.2511 29.7442 11.25 28.75V23.75H13.75V28.75C13.7503 29.0814 13.8821 29.3992 14.1165 29.6335C14.3508 29.8679 14.6686 29.9997 15 30H22.5V32.5Z" fill="#007680"/>
<path d="M32.5 22.5H30V18.75C29.9997 18.4186 29.8679 18.1008 29.6335 17.8665C29.3992 17.6321 29.0814 17.5003 28.75 17.5H22.5V15H28.75C29.7442 15.0011 30.6974 15.3965 31.4004 16.0996C32.1035 16.8026 32.4989 17.7558 32.5 18.75V22.5Z" fill="#007680"/>
<path d="M18.75 22.5C18.532 22.5001 18.3177 22.4431 18.1286 22.3346L12.5 19.1107L6.871 22.3346C6.6599 22.4556 6.4181 22.5123 6.17525 22.4978C5.9324 22.4833 5.69905 22.3983 5.50382 22.2531C5.30858 22.108 5.15995 21.909 5.07614 21.6806C4.99233 21.4522 4.97699 21.2044 5.032 20.9674L6.35925 15.2524L2.83625 11.478C2.68204 11.3128 2.57551 11.1089 2.52797 10.888C2.48043 10.6671 2.49367 10.4374 2.56628 10.2234C2.63889 10.0094 2.76816 9.81908 2.94032 9.67271C3.11248 9.52633 3.32111 9.42936 3.544 9.39212L8.794 8.51475L11.3757 3.20337C11.4772 2.99472 11.6346 2.8184 11.8305 2.69415C12.0264 2.5699 12.2531 2.50262 12.485 2.49985C12.717 2.49707 12.9452 2.5589 13.144 2.67843C13.3429 2.79795 13.5045 2.97045 13.6109 3.17662L16.3666 8.51537L21.4621 9.393C21.6843 9.43124 21.8921 9.52887 22.0633 9.67556C22.2346 9.82224 22.3629 10.0125 22.4348 10.2262C22.5068 10.4399 22.5195 10.6691 22.4718 10.8895C22.4241 11.1098 22.3176 11.3132 22.1637 11.478L18.6407 15.253L19.9674 20.9677C20.0098 21.151 20.0104 21.3415 19.969 21.525C19.9276 21.7085 19.8454 21.8803 19.7284 22.0276C19.6113 22.1749 19.4626 22.2938 19.2932 22.3756C19.1238 22.4574 18.9381 22.4999 18.75 22.5ZM12.5 16.25C12.5 16.25 12.9287 16.475 13.1214 16.5857L16.8839 18.7409L15.9042 14.5205L18.7567 11.4639L14.7154 10.7677L12.5334 6.54025L10.4786 10.768L6.2525 11.4742L9.09562 14.5205L8.1155 18.7409L11.8786 16.5857C12.0712 16.475 12.5 16.25 12.5 16.25Z" fill="#007680"/>
</svg>
