<svg width="40" height="40" viewBox="0 0 40 40" fill="none" xmlns="http://www.w3.org/2000/svg">
<path d="M32.5 27.5C31.6172 27.5043 30.7525 27.7508 30 28.2125L26.1375 24.3375C27.0363 23.0697 27.519 21.554 27.519 20C27.519 18.446 27.0363 16.9303 26.1375 15.6625L30 11.7875C30.7525 12.2492 31.6172 12.4957 32.5 12.5C33.4889 12.5 34.4556 12.2068 35.2779 11.6574C36.1001 11.1079 36.741 10.327 37.1194 9.41342C37.4978 8.49979 37.5969 7.49446 37.4039 6.52455C37.211 5.55465 36.7348 4.66373 36.0355 3.96447C35.3363 3.26521 34.4454 2.789 33.4755 2.59608C32.5055 2.40315 31.5002 2.50217 30.5866 2.8806C29.673 3.25904 28.8921 3.89991 28.3427 4.72215C27.7932 5.5444 27.5 6.5111 27.5 7.5C27.5043 8.38283 27.7508 9.24755 28.2125 10L24.3375 13.8625C23.0697 12.9637 21.554 12.481 20 12.481C18.446 12.481 16.9303 12.9637 15.6625 13.8625L11.7875 10C12.2492 9.24755 12.4957 8.38283 12.5 7.5C12.5 6.5111 12.2068 5.5444 11.6574 4.72215C11.1079 3.89991 10.327 3.25904 9.41342 2.8806C8.49979 2.50217 7.49446 2.40315 6.52455 2.59608C5.55465 2.789 4.66373 3.26521 3.96447 3.96447C3.26521 4.66373 2.789 5.55465 2.59608 6.52455C2.40315 7.49446 2.50217 8.49979 2.8806 9.41342C3.25904 10.327 3.89991 11.1079 4.72215 11.6574C5.5444 12.2068 6.5111 12.5 7.5 12.5C8.38283 12.4957 9.24755 12.2492 10 11.7875L13.8625 15.6625C12.9637 16.9303 12.481 18.446 12.481 20C12.481 21.554 12.9637 23.0697 13.8625 24.3375L10 28.2125C9.24755 27.7508 8.38283 27.5043 7.5 27.5C6.5111 27.5 5.5444 27.7932 4.72215 28.3427C3.89991 28.8921 3.25904 29.673 2.8806 30.5866C2.50217 31.5002 2.40315 32.5055 2.59608 33.4755C2.789 34.4454 3.26521 35.3363 3.96447 36.0355C4.66373 36.7348 5.55465 37.211 6.52455 37.4039C7.49446 37.5969 8.49979 37.4978 9.41342 37.1194C10.327 36.741 11.1079 36.1001 11.6574 35.2779C12.2068 34.4556 12.5 33.4889 12.5 32.5C12.4957 31.6172 12.2492 30.7525 11.7875 30L15.6625 26.1375C16.9303 27.0363 18.446 27.519 20 27.519C21.554 27.519 23.0697 27.0363 24.3375 26.1375L28.2125 30C27.7508 30.7525 27.5043 31.6172 27.5 32.5C27.5 33.4889 27.7932 34.4556 28.3427 35.2779C28.8921 36.1001 29.673 36.741 30.5866 37.1194C31.5002 37.4978 32.5055 37.5969 33.4755 37.4039C34.4454 37.211 35.3363 36.7348 36.0355 36.0355C36.7348 35.3363 37.211 34.4454 37.4039 33.4755C37.5969 32.5055 37.4978 31.5002 37.1194 30.5866C36.741 29.673 36.1001 28.8921 35.2779 28.3427C34.4556 27.7932 33.4889 27.5 32.5 27.5ZM32.5 5C32.9945 5 33.4778 5.14662 33.8889 5.42133C34.3001 5.69603 34.6205 6.08648 34.8097 6.54329C34.9989 7.00011 35.0484 7.50278 34.952 7.98773C34.8555 8.47268 34.6174 8.91814 34.2678 9.26777C33.9181 9.6174 33.4727 9.8555 32.9877 9.95197C32.5028 10.0484 32.0001 9.99892 31.5433 9.8097C31.0865 9.62048 30.696 9.30005 30.4213 8.88893C30.1466 8.4778 30 7.99446 30 7.5C30 6.83696 30.2634 6.20108 30.7322 5.73223C31.2011 5.26339 31.837 5 32.5 5ZM5 7.5C5 7.00555 5.14662 6.5222 5.42133 6.11108C5.69603 5.69995 6.08648 5.37952 6.54329 5.1903C7.00011 5.00108 7.50278 4.95158 7.98773 5.04804C8.47268 5.1445 8.91814 5.3826 9.26777 5.73223C9.6174 6.08187 9.8555 6.52732 9.95197 7.01228C10.0484 7.49723 9.99892 7.9999 9.8097 8.45671C9.62048 8.91353 9.30005 9.30397 8.88893 9.57868C8.4778 9.85338 7.99446 10 7.5 10C6.83696 10 6.20108 9.73661 5.73223 9.26777C5.26339 8.79893 5 8.16304 5 7.5ZM7.5 35C7.00555 35 6.5222 34.8534 6.11108 34.5787C5.69995 34.304 5.37952 33.9135 5.1903 33.4567C5.00108 32.9999 4.95158 32.4972 5.04804 32.0123C5.1445 31.5273 5.3826 31.0819 5.73223 30.7322C6.08187 30.3826 6.52732 30.1445 7.01228 30.048C7.49723 29.9516 7.9999 30.0011 8.45671 30.1903C8.91353 30.3795 9.30397 30.7 9.57868 31.1111C9.85338 31.5222 10 32.0055 10 32.5C10 33.163 9.73661 33.7989 9.26777 34.2678C8.79893 34.7366 8.16304 35 7.5 35ZM20 25C19.0111 25 18.0444 24.7068 17.2222 24.1574C16.3999 23.6079 15.759 22.827 15.3806 21.9134C15.0022 20.9998 14.9031 19.9945 15.0961 19.0246C15.289 18.0546 15.7652 17.1637 16.4645 16.4645C17.1637 15.7652 18.0546 15.289 19.0246 15.0961C19.9945 14.9031 20.9998 15.0022 21.9134 15.3806C22.827 15.759 23.6079 16.3999 24.1574 17.2222C24.7068 18.0444 25 19.0111 25 20C25 21.3261 24.4732 22.5979 23.5355 23.5355C22.5979 24.4732 21.3261 25 20 25ZM32.5 35C32.0055 35 31.5222 34.8534 31.1111 34.5787C30.7 34.304 30.3795 33.9135 30.1903 33.4567C30.0011 32.9999 29.9516 32.4972 30.048 32.0123C30.1445 31.5273 30.3826 31.0819 30.7322 30.7322C31.0819 30.3826 31.5273 30.1445 32.0123 30.048C32.4972 29.9516 32.9999 30.0011 33.4567 30.1903C33.9135 30.3795 34.304 30.7 34.5787 31.1111C34.8534 31.5222 35 32.0055 35 32.5C35 33.163 34.7366 33.7989 34.2678 34.2678C33.7989 34.7366 33.163 35 32.5 35Z" fill="#007680"/>
</svg>
