<svg width="15" height="12" viewBox="0 0 15 12" fill="none" xmlns="http://www.w3.org/2000/svg">
<path d="M3.19531 8.45312C3.89844 8.125 4.42188 7.72656 4.76562 7.25781C5.10938 6.77344 5.21875 6.30469 5.09375 5.85156C5.01562 5.52344 4.70312 5.17969 4.15625 4.82031C3.625 4.46094 2.55469 4.35156 0.945312 4.49219C0.804688 4.49219 0.6875 4.54688 0.59375 4.65625C0.5 4.76562 0.46875 4.89844 0.5 5.05469C0.5 5.19531 0.554688 5.3125 0.664062 5.40625C0.773438 5.5 0.898438 5.53125 1.03906 5.5C2.19531 5.40625 2.99219 5.44531 3.42969 5.61719C3.88281 5.78906 4.125 5.95312 4.15625 6.10938C4.20312 6.28125 4.10938 6.50781 3.875 6.78906C3.64062 7.07031 3.28125 7.32031 2.79688 7.53906C2.46875 7.69531 2.21875 7.875 2.04688 8.07812C1.875 8.28125 1.77344 8.52344 1.74219 8.80469C1.72656 9.25781 1.875 9.63281 2.1875 9.92969C2.51562 10.2266 2.70312 10.3984 2.75 10.4453C2.79688 10.4766 2.84375 10.5 2.89062 10.5156C2.95312 10.5312 3.00781 10.5391 3.05469 10.5391C3.13281 10.5391 3.20312 10.5234 3.26562 10.4922C3.34375 10.4453 3.40625 10.3984 3.45312 10.3516C3.53125 10.2266 3.55469 10.1016 3.52344 9.97656C3.49219 9.83594 3.41406 9.72656 3.28906 9.64844C3.19531 9.57031 3.07031 9.46094 2.91406 9.32031C2.77344 9.16406 2.71875 9.02344 2.75 8.89844C2.75 8.82031 2.78906 8.75 2.86719 8.6875C2.94531 8.60938 3.05469 8.53125 3.19531 8.45312ZM14.6094 2.40625L13.2031 1C13.0938 0.90625 12.9688 0.859375 12.8281 0.859375C12.7031 0.859375 12.5938 0.90625 12.5 1L5.39844 8.10156C5.36719 8.13281 5.34375 8.16406 5.32812 8.19531C5.3125 8.21094 5.30469 8.24219 5.30469 8.28906L4.60156 10.3984C4.57031 10.4922 4.5625 10.5859 4.57812 10.6797C4.60938 10.7734 4.64844 10.8438 4.69531 10.8906C4.74219 10.9531 4.78906 11 4.83594 11.0312C4.89844 11.0469 4.96875 11.0547 5.04688 11.0547C5.07812 11.0547 5.10156 11.0547 5.11719 11.0547C5.14844 11.0391 5.17969 11.0234 5.21094 11.0078L7.29688 10.3047C7.32812 10.3047 7.35938 10.2969 7.39062 10.2812C7.4375 10.25 7.47656 10.2266 7.50781 10.2109L14.6094 3.10938C14.6562 3.04688 14.6875 2.99219 14.7031 2.94531C14.7344 2.88281 14.75 2.82031 14.75 2.75781C14.75 2.67969 14.7344 2.61719 14.7031 2.57031C14.6875 2.50781 14.6562 2.45312 14.6094 2.40625ZM6.89844 9.39062L5.84375 9.74219L6.19531 8.71094L9.99219 4.89062L10.6953 5.59375L6.89844 9.39062ZM11.3984 4.89062L10.6953 4.21094L12.8047 2.10156L13.5078 2.80469L11.3984 4.89062Z" fill="#0D8390"/>
</svg>
