<svg width="90" height="90" viewBox="0 0 90 90" fill="none" xmlns="http://www.w3.org/2000/svg">
    <g clip-path="url(#clip0_635_2096)">
        <path d="M14.0625 20.625C11.9925 20.625 10.3125 18.945 10.3125 16.875V3.75C10.3125 1.68 11.9925 0 14.0625 0C16.1325 0 17.8125 1.68 17.8125 3.75V16.875C17.8125 18.945 16.1325 20.625 14.0625 20.625Z" fill="#B0BEC5" />
        <path d="M31.875 20.625C29.805 20.625 28.125 18.945 28.125 16.875V3.75C28.125 1.68 29.805 0 31.875 0C33.945 0 35.625 1.68 35.625 3.75V16.875C35.625 18.945 33.945 20.625 31.875 20.625Z" fill="#B0BEC5" />
        <path d="M49.6875 20.625C47.6175 20.625 45.9375 18.945 45.9375 16.875V3.75C45.9375 1.68 47.6175 0 49.6875 0C51.7575 0 53.4375 1.68 53.4375 3.75V16.875C53.4375 18.945 51.7575 20.625 49.6875 20.625Z" fill="#B0BEC5" />
        <path d="M14.0625 0C11.9887 0 10.3125 1.67625 10.3125 3.75V16.875C10.3125 18.9487 11.9887 20.625 14.0625 20.625V0Z" fill="#99A5AC" />
        <path d="M31.875 0C29.8013 0 28.125 1.67625 28.125 3.75V16.875C28.125 18.9487 29.8013 20.625 31.875 20.625V0Z" fill="#99A5AC" />
        <path d="M49.6875 0C47.6137 0 45.9375 1.67625 45.9375 3.75V16.875C45.9375 18.9487 47.6137 20.625 49.6875 20.625V0Z" fill="#99A5AC" />
        <path d="M31.875 8.4375H10.3125C4.6125 8.4375 0 13.05 0 18.75V68.4375C0 74.1375 4.6125 78.75 10.3125 78.75H31.875V8.4375Z" fill="#CDD0D2" />
        <path d="M53.4375 8.4375H10.3125C4.6125 8.4375 0 13.05 0 18.75V68.4375C0 74.1375 4.6125 78.75 10.3125 78.75H28.6875C29.0625 77.25 29.7375 75.825 30.6 74.5125L50.175 42.7125C52.6875 38.4 57.5625 35.625 62.8125 35.625C63.1125 35.625 63.45 35.625 63.75 35.6625V18.75C63.75 13.05 59.1375 8.4375 53.4375 8.4375Z" fill="#ECEFF1" />
        <path d="M41.25 48.75H15C12.93 48.75 11.25 47.07 11.25 45C11.25 42.93 12.93 41.25 15 41.25H41.25C43.32 41.25 45 42.93 45 45C45 47.07 43.32 48.75 41.25 48.75Z" fill="#90A4AE" />
        <path d="M30 33.75H15C12.93 33.75 11.25 32.07 11.25 30C11.25 27.93 12.93 26.25 15 26.25H30C32.07 26.25 33.75 27.93 33.75 30C33.75 32.07 32.07 33.75 30 33.75Z" fill="#90A4AE" />
        <path d="M82.6425 90.0001H42.9825C38.925 90.0001 35.625 86.7114 35.625 82.6689C35.625 81.2289 36.0337 79.8601 36.8062 78.7126L56.5538 46.6238C57.81 44.4901 60.225 43.1213 62.8125 43.1213C65.4 43.1213 67.815 44.4863 69.1088 46.6876L88.9013 78.8401C89.5913 79.8601 90 81.2289 90 82.6689C90 86.7114 86.7 90.0001 82.6425 90.0001ZM82.5675 82.8489C82.575 82.8676 82.5863 82.8826 82.6013 82.9014L82.5675 82.8489ZM86.25 82.6689H86.2875H86.25Z" fill="#FF694C" />
        <path d="M62.8125 73.125C60.7388 73.125 59.0625 71.445 59.0625 69.375V61.875C59.0625 59.805 60.7388 58.125 62.8125 58.125C64.8863 58.125 66.5625 59.805 66.5625 61.875V69.375C66.5625 71.445 64.8863 73.125 62.8125 73.125Z" fill="white" />
        <path d="M62.8125 82.5C64.8836 82.5 66.5625 80.8211 66.5625 78.75C66.5625 76.6789 64.8836 75 62.8125 75C60.7414 75 59.0625 76.6789 59.0625 78.75C59.0625 80.8211 60.7414 82.5 62.8125 82.5Z" fill="white" />
        <path d="M33.75 30H11.25C11.25 32.0738 12.9263 33.75 15 33.75H30C32.0737 33.75 33.75 32.0738 33.75 30Z" fill="#7D8F97" />
        <path d="M45 45H11.25C11.25 47.0737 12.9263 48.75 15 48.75H41.25C43.3237 48.75 45 47.0737 45 45Z" fill="#7D8F97" />
        <path d="M62.8125 43.125C60.225 43.125 57.81 44.49 56.5537 46.6275L36.8062 78.7125C36.0337 79.8638 35.625 81.2288 35.625 82.6688C35.625 86.7113 38.925 90 42.9825 90H62.8125V82.5C60.7387 82.5 59.0625 80.8238 59.0625 78.75C59.0625 76.6763 60.7387 75 62.8125 75V73.125C60.7387 73.125 59.0625 71.4488 59.0625 69.375V61.875C59.0625 59.8013 60.7387 58.125 62.8125 58.125V43.125Z" fill="#FF694C" />
        <path d="M62.8125 58.125C60.7387 58.125 59.0625 59.8012 59.0625 61.875V69.375C59.0625 71.4487 60.7387 73.125 62.8125 73.125V58.125Z" fill="#DEDEDE" />
        <path d="M62.8125 75C60.7387 75 59.0625 76.6763 59.0625 78.75C59.0625 80.8238 60.7387 82.5 62.8125 82.5V75Z" fill="#DEDEDE" />
    </g>
    <defs>
        <clipPath id="clip0_635_2096">
            <rect width="90" height="90" fill="white" />
        </clipPath>
    </defs>
</svg>