<svg xmlns="http://www.w3.org/2000/svg" width="90" height="90" viewBox="0 0 90 90" fill="none">
    <g clip-path="url(#clip0_635_2096)">
        <path d="M82.6425 90.0001H42.9825C38.925 90.0001 35.625 86.7114 35.625 82.6689C35.625 81.2289 36.0337 79.8601 36.8062 78.7126L56.5538 46.6238C57.81 44.4901 60.225 43.1213 62.8125 43.1213C65.4 43.1213 67.815 44.4863 69.1088 46.6876L88.9013 78.8401C89.5913 79.8601 90 81.2289 90 82.6689C90 86.7114 86.7 90.0001 82.6425 90.0001ZM82.5675 82.8489C82.575 82.8676 82.5863 82.8826 82.6013 82.9014L82.5675 82.8489ZM86.25 82.6689H86.2875H86.25Z" fill="#FF694C"/>
        <path d="M62.8125 73.125C60.7388 73.125 59.0625 71.445 59.0625 69.375V61.875C59.0625 59.805 60.7388 58.125 62.8125 58.125C64.8863 58.125 66.5625 59.805 66.5625 61.875V69.375C66.5625 71.445 64.8863 73.125 62.8125 73.125Z" fill="white"/>
        <path d="M62.8125 82.5C64.8836 82.5 66.5625 80.8211 66.5625 78.75C66.5625 76.6789 64.8836 75 62.8125 75C60.7414 75 59.0625 76.6789 59.0625 78.75C59.0625 80.8211 60.7414 82.5 62.8125 82.5Z" fill="white"/>
    </g>
    <defs>
        <clipPath id="clip0_635_2096">
            <rect width="90" height="90" fill="white"/>
        </clipPath>
    </defs>
</svg>