<svg width="85" height="16" viewBox="0 0 85 16" fill="none" xmlns="http://www.w3.org/2000/svg">
<path fill-rule="evenodd" clip-rule="evenodd" d="M80 13.5C80 12.1333 81.1333 11 82.5 11C83.8667 11 85 12.1333 85 13.5C85 14.8667 83.8667 16 82.5 16C81.1333 16 80 14.8667 80 13.5Z" fill="#86BC25"/>
<path fill-rule="evenodd" clip-rule="evenodd" d="M55.2881 0.362264V4.04528H57.7606V7.06415H55.2881V11.6226C55.2881 12.3774 55.6158 12.7698 56.3307 12.7698C56.8669 12.7698 57.4925 12.6491 58.2074 12.3774V15.3358C57.6712 15.5774 57.1946 15.7283 56.7179 15.8491C56.2413 15.9396 55.6753 16 55.0498 16C53.7391 16 52.8156 15.6679 52.2198 15.0038C51.6538 14.3396 51.356 13.3132 51.356 11.9547V7.06415H49.9857V4.04528H51.356V1.0566L55.2881 0.362264ZM64.2843 0.392453V4.04528H66.7568V7.06415H64.2843V11.6226C64.2843 12.3774 64.6418 12.7698 65.3269 12.7698C65.8631 12.7698 66.4887 12.6491 67.2036 12.3774V15.3358C66.6674 15.5774 66.1908 15.7283 65.7142 15.8491C65.2376 15.9396 64.6716 16 64.046 16C62.7353 16 61.8118 15.6679 61.2161 15.0038C60.6501 14.3396 60.3522 13.3132 60.3522 11.9547V7.06415H58.9819V4.04528H60.3522V1.02642L64.2843 0.392453ZM37.4148 3.86415C38.517 3.86415 39.5 4.10566 40.3639 4.58868C41.2278 5.0717 41.8533 5.76604 42.3299 6.70189C42.7768 7.57736 43.0151 8.63396 43.0151 9.8717C43.0151 11.7736 42.5087 13.283 41.5256 14.3396C40.5426 15.3962 39.1425 15.9396 37.3552 15.9396C35.6572 15.9396 34.287 15.3962 33.2741 14.3094C32.2613 13.2226 31.7549 11.7434 31.7549 9.8717C31.7549 7.96981 32.2613 6.49057 33.2443 5.43396C34.2274 4.37736 35.6274 3.86415 37.4148 3.86415ZM73.6678 3.83396C75.3658 3.83396 76.6765 4.31698 77.5999 5.22264C78.4657 6.0717 78.9387 7.29222 78.9944 8.85932L79 9.17736V11.0189H72.0592C72.089 11.683 72.2975 12.1962 72.7443 12.5585C73.1912 12.9208 73.787 13.1019 74.5317 13.1019C75.2168 13.1019 75.8424 13.0113 76.4084 12.8906C76.7182 12.8181 77.047 12.707 77.395 12.5727L77.6595 12.4679L78.2553 15.0943C77.6595 15.4264 77.0339 15.6377 76.3786 15.7585C75.7232 15.8792 74.9487 15.9396 74.0551 15.9396C72.1784 15.9396 70.7187 15.4264 69.6761 14.4C68.6335 13.3434 68.1271 11.8642 68.1271 9.96226C68.1271 7.96981 68.6037 6.46038 69.5569 5.40377C70.5102 4.34717 71.8805 3.83396 73.6678 3.83396ZM19.5415 3.83396C21.2394 3.83396 22.5501 4.31698 23.4736 5.22264C24.3971 6.1283 24.8439 7.4566 24.8737 9.17736V11.0189H17.9329C17.9627 11.683 18.1712 12.1962 18.618 12.5585C19.0649 12.9208 19.6606 13.1019 20.4054 13.1019C21.0905 13.1019 21.7161 13.0113 22.2821 12.8906C22.6693 12.8 23.0863 12.6491 23.5332 12.4679L24.129 15.0943C23.5332 15.4264 22.9076 15.6377 22.2523 15.7585C21.5969 15.8792 20.8224 15.9396 19.9287 15.9396C18.052 15.9396 16.5924 15.4264 15.5498 14.4C14.5072 13.3434 14.0008 11.8642 14.0008 9.96226C14.0008 7.96981 14.4774 6.46038 15.4306 5.40377C16.3839 4.34717 17.7541 3.83396 19.5415 3.83396ZM30.2655 0V15.7585H26.3631V0H30.2655ZM48.4664 4.04528V15.7585H44.5641V4.04528H48.4664ZM5.24284 0.0301887C7.65573 0.0301887 9.53243 0.664151 10.8729 1.96226C12.1538 3.29057 12.8092 5.13208 12.8092 7.57736C12.8092 10.2038 12.1241 12.1962 10.724 13.6151C9.32391 15.034 7.38763 15.7283 4.85558 15.7283H0V0.0301887H5.24284ZM37.4148 6.85283C36.819 6.85283 36.402 7.09434 36.1339 7.60755C35.836 8.12076 35.7168 8.87547 35.7168 9.8717C35.7168 10.8679 35.836 11.6528 36.1041 12.166C36.3722 12.6792 36.7892 12.9509 37.4148 12.9509C38.0106 12.9509 38.4574 12.6792 38.6957 12.166C38.934 11.6528 39.083 10.8679 39.083 9.8717C39.083 8.87547 38.9638 8.12076 38.6957 7.60755C38.4574 7.09434 38.0106 6.85283 37.4148 6.85283ZM5.24284 3.50189H4.05128V12.2868H4.97474C6.22587 12.2868 7.11953 11.9245 7.71531 11.1698C8.2813 10.3849 8.57919 9.26792 8.57919 7.7283C8.57919 6.27925 8.31109 5.22264 7.7451 4.5283C7.2089 3.83396 6.37481 3.50189 5.24284 3.50189ZM73.8167 6.58113C73.3401 6.58113 72.9529 6.73208 72.655 7.03396C72.3902 7.30231 72.2195 7.71377 72.1431 8.24714L72.1188 8.45283H75.4849C75.4551 7.87925 75.3062 7.42642 75.0083 7.09434C74.7104 6.76226 74.3232 6.58113 73.8167 6.58113ZM19.6606 6.58113C19.184 6.58113 18.7968 6.73208 18.4989 7.03396C18.201 7.33585 18.0222 7.81887 17.9627 8.45283H21.3288C21.299 7.87925 21.1501 7.42642 20.8522 7.09434C20.5543 6.76226 20.167 6.58113 19.6606 6.58113ZM48.4664 0V2.62642H44.5641V0H48.4664Z" fill="white"/>
</svg>
