<svg width="90" height="90" viewBox="0 0 90 90" fill="none" xmlns="http://www.w3.org/2000/svg">
    <g clip-path="url(#clip0_635_2028)">
        <path d="M86.0253 36.0804L49.0936 1.61348C46.7883 -0.537827 43.2112 -0.537827 40.9061 1.61348L3.97461 36.0804V73.6722H86.0253V36.0804Z" fill="#FFBD61" />
        <path d="M32.8839 63.0597L40.9067 70.5471C43.212 72.6984 46.789 72.6984 49.0942 70.5471C49.0942 70.5471 61.5546 58.9181 72.0002 49.1696V8.99994C72.0002 7.34318 70.6571 5.99988 69.0001 5.99988H21.0001C19.3431 5.99988 18 7.343 18 8.99994V49.1693L32.8839 63.0597Z" fill="#F9F5F3" />
        <path d="M68.9999 6.00012H64.835C66.4919 6.00012 67.835 7.34324 67.835 9.00018V53.0571C69.2363 51.7495 70.6353 50.4436 72 49.1701V9C71.9998 7.34324 70.6567 6.00012 68.9999 6.00012Z" fill="#F9EAE0" />
        <path d="M3.97497 36.0803L32.8838 63.0597L40.9067 70.5471C43.2119 72.6984 46.7891 72.6984 49.0941 70.5471C49.0941 70.5471 86.0254 36.0801 86.0256 36.0803C86.6247 36.6288 87.0002 37.4173 87.0002 38.2934V83.9996C87.0002 87.3133 84.314 89.9995 81.0003 89.9995H71.2502H18.75H8.99994C5.68624 89.9995 3 87.3133 3 83.9996V38.2934C3 37.4171 3.37575 36.6285 3.97479 36.08L3.97497 36.0803Z" fill="#FFCE69" />
        <path d="M3.97497 36.0803L32.8838 63.0597L40.9067 70.5471C43.2119 72.6984 46.7891 72.6984 49.0941 70.5471C49.0941 70.5471 86.0254 36.0801 86.0256 36.0803C86.6247 36.6288 87.0002 37.4173 87.0002 38.2934V83.9996C87.0002 87.3133 84.314 89.9995 81.0003 89.9995H71.2502H18.75H8.99994C5.68624 89.9995 3 87.3133 3 83.9996V38.2934C3 37.4171 3.37575 36.6285 3.97479 36.08L3.97497 36.0803Z" fill="#FFCE69" />
        <path d="M86.0255 36.0807C86.0255 36.0807 84.8158 37.2096 82.8351 39.0581V84.0002C82.8351 87.3139 80.1487 90.0003 76.835 90.0003H81C84.3137 90.0003 87.0001 87.3141 87.0001 84.0002V38.2939C87.0001 37.4177 86.6243 36.6292 86.0255 36.0807Z" fill="#FFBD61" />
        <path d="M78.0001 84.0004C79.6571 84.0004 81.0002 82.6572 81.0002 81.0003C81.0002 79.3434 79.6571 78.0002 78.0001 78.0002H66.0001C64.3431 78.0002 63 79.3434 63 81.0003C63 82.6572 64.3431 84.0004 66.0001 84.0004H78.0001Z" fill="#F9F5F3" />
        <path d="M77.9999 78.0005H73.835C75.4919 78.0005 76.835 79.3436 76.835 81.0006C76.835 82.6575 75.4919 84.0006 73.835 84.0006H77.9999C79.6569 84.0006 81 82.6575 81 81.0006C81 79.3436 79.6569 78.0005 77.9999 78.0005Z" fill="#F9EAE0" />
        <rect x="34.0576" y="27.39" width="15.3889" height="6.15235" rx="3.07617" transform="rotate(45 34.0576 27.39)" fill="#43B02A" />
        <rect x="56.9209" y="26.4988" width="22.658" height="6.15235" rx="3.07617" transform="rotate(135 56.9209 26.4988)" fill="#43B02A" />
    </g>
    <defs>
        <clipPath id="clip0_635_2028">
            <rect width="90" height="90" fill="white" />
        </clipPath>
    </defs>
</svg>